<?xml version="1.0" standalone="no"?>
<!DOCTYPE svg PUBLIC "-//W3C//DTD SVG 20010904//EN"
 "http://www.w3.org/TR/2001/REC-SVG-20010904/DTD/svg10.dtd">
<svg version="1.0" xmlns="http://www.w3.org/2000/svg"
 width="512.000000pt" height="512.000000pt" viewBox="0 0 512.000000 512.000000"
 preserveAspectRatio="xMidYMid meet">
<metadata>
Created by potrace 1.11, written by Peter Selinger 2001-2013
</metadata>
<g transform="translate(0.000000,512.000000) scale(0.100000,-0.100000)"
fill="#000000" stroke="none">
<path d="M2563 4998 c-6 -7 -11 -41 -12 -75 -4 -94 -9 -152 -16 -163 -3 -5 -2
-10 4 -10 6 0 6 -11 1 -30 -5 -18 -5 -32 1 -35 5 -4 5 -13 -1 -24 -5 -10 -9
-38 -9 -62 1 -110 -2 -143 -13 -150 -9 -6 -9 -11 0 -22 9 -10 8 -18 -3 -33
-19 -26 -19 -43 5 -89 21 -42 29 -84 10 -55 -6 10 -10 11 -10 3 0 -15 -58 -73
-74 -73 -6 -1 -37 -3 -68 -7 -32 -3 -77 -2 -101 1 l-44 7 -1 57 c-7 516 -13
694 -24 715 -10 19 -13 20 -16 5 -2 -10 -8 -18 -14 -18 -7 0 -6 -5 1 -14 9
-11 10 -25 2 -50 -5 -20 -6 -38 -2 -41 4 -2 6 -58 4 -123 -4 -145 -4 -132 0
-322 2 -85 7 -166 12 -179 7 -22 5 -23 -21 -18 -16 4 -63 11 -104 17 -41 6
-95 21 -120 33 l-45 22 -2 90 c-1 50 -4 167 -7 260 -2 94 -5 213 -5 266 -1 85
-3 97 -20 102 -17 4 -18 -4 -19 -95 -1 -54 -3 -102 -6 -107 -3 -4 -1 -23 4
-40 10 -35 13 -134 7 -191 -2 -19 0 -46 6 -60 12 -30 19 -220 8 -220 -13 0
-73 20 -116 40 -22 9 -49 20 -60 24 -11 3 -49 21 -85 38 -52 27 -65 38 -67 58
-3 40 -15 367 -17 450 -1 68 -3 75 -21 75 -18 0 -20 -7 -22 -65 -1 -36 -3 -65
-4 -65 -7 0 -5 -162 3 -171 4 -6 10 -54 12 -105 2 -52 6 -102 11 -111 7 -17 4
-17 -36 -3 -24 9 -53 22 -64 29 -11 7 -38 19 -60 26 -22 7 -56 24 -75 36 -38
26 -100 42 -100 27 0 -5 20 -23 44 -40 24 -17 70 -64 102 -104 32 -41 68 -83
79 -95 11 -12 39 -42 63 -67 l42 -46 0 -85 c0 -62 -4 -86 -12 -87 -36 -4 -67
-8 -103 -13 -64 -9 -237 -7 -272 3 -17 5 -34 7 -36 4 -6 -5 -116 28 -173 52
-21 9 -50 19 -64 21 -32 7 -33 8 -36 52 -5 67 -16 387 -15 402 1 8 3 54 4 101
2 76 0 85 -15 81 -22 -5 -26 -28 -23 -109 2 -37 7 -164 10 -280 6 -188 5 -213
-8 -213 -9 0 -19 4 -22 10 -7 11 -120 46 -175 54 -19 3 -57 8 -85 11 -27 3
-71 11 -96 16 -63 14 -188 17 -189 4 0 -5 22 -13 50 -17 106 -13 183 -46 272
-116 46 -37 123 -94 171 -127 88 -62 106 -85 81 -109 -14 -15 -20 -51 -7 -43
7 5 8 -76 3 -190 -1 -21 -1 -40 0 -43 1 -3 3 -12 5 -20 1 -8 6 -27 10 -41 7
-30 -31 -86 -124 -182 -114 -118 -274 -206 -390 -213 -57 -3 -186 19 -207 37
-8 7 -14 6 -19 -2 -13 -20 29 -49 100 -69 116 -33 400 -29 542 8 42 12 77 16
85 11 12 -8 5 -13 -17 -10 -5 1 -3 -5 6 -12 14 -11 16 -34 14 -172 -2 -88 -7
-161 -12 -162 -4 -2 -9 27 -9 65 -3 106 -3 107 -15 95 -9 -9 -11 -69 -9 -288
0 -27 -2 -79 -3 -115 -2 -36 1 -71 6 -78 7 -8 6 -20 0 -35 -8 -17 -7 -32 2
-54 11 -26 11 -34 -1 -52 -14 -20 -11 -26 10 -22 5 1 5 -11 2 -26 -4 -15 -8
-74 -9 -129 -2 -84 0 -101 12 -96 10 4 12 1 6 -8 -8 -12 -16 -67 -14 -95 0 -5
1 -37 2 -70 1 -33 6 -63 11 -66 4 -4 2 -17 -4 -30 -10 -17 -10 -24 -2 -27 9
-3 9 -9 1 -24 -8 -16 -8 -22 2 -29 10 -6 10 -11 1 -21 -13 -16 -5 -58 10 -58
6 0 4 -10 -5 -23 -12 -19 -13 -29 -2 -59 13 -38 3 -74 -17 -62 -7 4 -8 2 -4
-5 4 -6 12 -9 17 -5 6 3 9 -12 8 -40 -2 -25 -6 -46 -9 -46 -8 0 -5 -29 5 -52
4 -10 12 -15 19 -11 6 3 4 -2 -5 -13 -18 -22 -19 -50 -1 -47 17 4 15 -13 -4
-32 -10 -10 -13 -20 -7 -28 5 -7 9 -42 7 -79 -1 -38 1 -68 5 -68 9 0 8 -31 -1
-45 -3 -6 -6 -26 -6 -45 0 -19 -1 -39 -3 -45 -1 -5 3 -23 9 -38 15 -36 15 -37
-3 -37 -12 0 -13 -4 -5 -19 9 -18 18 -63 19 -103 1 -25 18 -22 27 5 4 12 8
330 9 707 1 377 5 703 8 725 4 22 9 60 12 85 9 85 71 269 115 340 38 63 89
120 159 175 84 68 113 113 119 189 3 47 0 55 -37 106 -23 30 -66 72 -96 94
-30 22 -52 42 -50 45 3 2 42 -8 88 -23 107 -35 169 -85 187 -152 7 -25 16 -40
20 -34 7 11 40 -29 40 -49 0 -6 6 -14 14 -18 8 -4 47 -39 88 -78 56 -54 74
-66 76 -52 2 9 9 17 15 18 91 3 166 34 227 92 59 55 74 86 72 144 -1 29 3 55
9 58 14 9 -9 35 -25 29 -7 -3 -18 6 -25 18 -13 25 -106 68 -147 68 -54 0 -104
-64 -82 -104 12 -22 -4 -41 -27 -32 -48 18 -57 210 -16 324 67 184 208 353
355 425 88 43 270 55 386 25 137 -35 229 -107 287 -225 30 -61 36 -86 40 -156
4 -71 2 -90 -15 -124 -29 -55 -104 -120 -182 -155 -105 -48 -128 -58 -136 -58
-21 0 -139 -65 -173 -95 -41 -38 -131 -172 -131 -197 0 -8 -4 -18 -8 -24 -5
-5 -19 -37 -31 -71 -27 -72 -33 -181 -14 -237 15 -44 17 -102 4 -110 -5 -3
-11 12 -15 34 -3 22 -14 43 -23 49 -15 8 -18 26 -19 123 -1 111 14 224 32 236
5 4 11 16 12 27 8 43 69 140 114 179 49 43 62 50 193 111 44 21 96 51 115 68
46 40 97 112 105 148 5 20 12 29 23 27 27 -5 37 43 23 109 -11 49 -22 66 -71
115 -31 32 -62 58 -69 58 -6 0 -38 11 -70 25 -90 38 -133 44 -214 34 -40 -6
-87 -15 -105 -20 -18 -6 -39 -12 -45 -13 -34 -6 -120 -62 -179 -116 -73 -66
-133 -169 -141 -241 -4 -36 -4 -36 52 -54 79 -25 153 -65 159 -87 2 -10 10
-18 17 -18 7 0 19 -7 26 -17 13 -15 12 -15 -8 -4 -22 11 -22 11 -11 -14 8 -19
14 -22 24 -14 19 15 46 -42 46 -97 0 -74 -53 -194 -86 -194 -9 0 -12 -7 -9
-19 3 -13 -2 -23 -17 -31 -15 -8 -20 -8 -16 -1 4 6 1 11 -8 11 -8 0 -18 -5
-21 -10 -12 -19 -80 -47 -119 -49 -21 -1 -47 -6 -58 -12 -35 -19 -111 6 -190
62 -14 11 -33 16 -42 13 -11 -4 -16 -1 -16 10 0 48 -75 19 -148 -57 -89 -92
-132 -141 -132 -150 0 -5 -9 -21 -19 -36 -11 -15 -22 -44 -26 -65 -4 -20 -19
-52 -33 -69 -14 -18 -22 -29 -17 -25 4 4 14 3 21 -3 14 -12 57 -3 49 10 -7 12
30 43 40 34 4 -5 5 -3 2 4 -8 13 80 91 133 118 72 37 206 56 278 40 55 -12 35
-20 -50 -21 -89 -1 -125 -6 -156 -23 -12 -6 -27 -11 -36 -11 -8 0 -30 -14 -48
-30 -18 -17 -39 -28 -46 -25 -8 3 -25 -4 -39 -15 -14 -11 -21 -20 -16 -20 6 0
16 7 23 15 7 8 18 15 24 15 6 0 -3 -13 -20 -28 -86 -79 -133 -173 -179 -357
-38 -155 -43 -204 -32 -314 10 -100 18 -128 37 -146 25 -23 30 -10 35 96 4 87
7 99 52 187 79 156 169 231 298 247 133 16 205 1 344 -73 110 -58 276 -183
363 -273 14 -16 61 -48 105 -72 43 -24 87 -49 98 -55 39 -23 201 -80 244 -87
24 -3 51 -10 60 -15 9 -6 32 -13 51 -18 41 -10 50 -45 13 -50 -26 -4 -85 36
-76 51 3 6 1 7 -6 3 -6 -4 -9 -11 -6 -16 8 -13 -17 -25 -43 -21 -12 1 -64 -12
-115 -30 -84 -30 -102 -33 -203 -33 -110 0 -112 1 -152 33 -38 30 -150 170
-200 251 -35 57 -82 149 -82 160 0 6 31 -15 70 -46 38 -31 70 -60 70 -66 0 -5
37 -46 83 -91 65 -64 102 -91 168 -123 93 -46 174 -68 234 -62 l40 3 -35 19
c-19 10 -48 20 -65 20 -22 2 -29 6 -27 19 3 19 -13 23 -23 7 -5 -8 -11 -7 -21
1 -7 6 -21 8 -30 5 -14 -5 -16 -1 -11 23 6 27 3 31 -29 41 -19 7 -38 9 -42 5
-8 -8 18 -25 41 -25 9 0 17 -6 17 -13 0 -24 -13 -28 -32 -10 -10 9 -18 13 -18
9 0 -3 -13 0 -29 9 -22 11 -28 20 -24 35 6 21 -6 27 -23 10 -8 -8 -15 -6 -24
5 -10 12 -10 15 4 15 9 0 16 7 16 15 0 8 -4 15 -8 15 -4 0 -34 23 -65 51 -68
61 -74 53 -12 -15 25 -26 45 -50 45 -52 0 -14 -53 34 -72 65 -22 35 -24 40
-27 69 0 7 -9 12 -19 10 -17 -3 -69 30 -145 93 -189 155 -357 189 -499 103
-65 -40 -121 -92 -143 -135 -19 -36 -52 -162 -49 -185 2 -10 5 -46 8 -80 7
-91 59 -265 102 -342 69 -124 108 -167 199 -223 84 -51 93 -64 86 -111 -4 -25
26 -119 48 -153 l26 -40 0 -359 c0 -279 3 -360 13 -363 6 -3 12 1 13 9 1 17 9
524 9 597 l0 55 34 -33 c19 -18 42 -31 52 -30 11 2 25 -1 33 -6 9 -5 5 7 -8
29 -13 20 -21 40 -18 43 3 3 0 22 -8 42 -15 39 -39 120 -40 136 0 6 -4 15 -8
22 -10 16 -6 75 6 91 6 8 6 12 -1 12 -18 0 4 81 27 100 3 3 11 14 17 25 6 11
24 25 40 30 16 6 37 18 46 27 24 24 60 24 51 2 -5 -14 -1 -16 23 -11 69 13 66
65 53 -948 -3 -166 1 -214 16 -209 12 5 14 63 15 387 0 522 4 764 11 771 3 3
20 1 38 -5 26 -9 35 -8 50 5 22 20 26 20 59 -2 15 -10 54 -36 87 -58 33 -21
63 -43 68 -49 9 -12 2 -649 -8 -664 -3 -6 -13 -11 -21 -11 -18 0 -13 -39 8
-54 15 -11 34 -54 30 -68 -1 -5 2 -8 7 -8 5 0 8 23 7 51 -1 28 2 53 6 55 5 3
6 10 2 15 -3 6 -5 40 -5 77 1 37 2 177 4 312 1 135 6 251 11 258 5 8 12 10 19
4 35 -26 169 -64 244 -69 l81 -6 -33 -46 c-41 -59 -52 -79 -79 -155 -38 -105
-15 -211 73 -341 18 -26 21 -46 21 -152 0 -70 -4 -124 -10 -128 -13 -8 -13
-112 0 -120 6 -4 17 -1 25 5 12 10 15 39 15 129 0 88 4 123 16 146 9 17 18 58
20 93 1 34 10 76 18 92 13 27 13 30 0 30 -9 0 -14 7 -12 18 2 9 11 16 21 16
10 -1 17 5 17 15 1 23 24 51 44 51 9 0 19 7 22 15 4 8 10 12 15 9 5 -3 26 4
45 15 38 23 79 27 89 10 4 -5 8 -134 10 -285 2 -240 4 -278 19 -292 20 -20 19
-37 17 303 -2 288 0 305 35 305 13 0 32 4 42 9 9 6 31 13 47 17 21 5 25 8 13
11 -29 7 -21 20 16 27 21 4 46 20 63 39 37 42 83 78 93 72 8 -5 6 -113 -4
-255 -8 -101 -15 -470 -10 -470 2 0 12 17 23 38 18 34 19 61 19 379 l-1 342
40 48 c22 26 58 74 80 106 23 32 43 54 46 50 3 -4 5 -29 5 -54 3 -129 85 -394
154 -491 20 -29 22 -84 15 -376 -2 -67 1 -92 10 -92 6 0 14 4 17 9 4 5 7 91 7
190 1 102 6 184 11 187 5 3 27 -8 48 -25 38 -30 60 -39 60 -23 0 4 -20 33 -45
65 -43 58 -44 60 -40 126 3 64 26 135 37 115 3 -5 11 -27 18 -49 21 -67 97
-219 119 -239 21 -19 21 -19 21 5 0 13 -10 44 -21 68 -11 25 -25 65 -30 90
-36 156 -36 179 -1 252 17 35 41 89 55 120 41 94 47 86 49 -78 1 -81 3 -173 4
-203 1 -30 3 -145 4 -255 2 -110 5 -206 8 -213 8 -24 43 40 37 68 -4 19 -3 21
4 10 11 -16 11 216 0 235 -3 6 -7 101 -8 213 -2 193 -1 202 17 202 11 0 31
-15 44 -33 51 -67 97 -135 117 -174 11 -22 27 -43 36 -46 19 -8 19 0 1 50 -8
22 -17 62 -20 89 -4 27 -9 58 -13 69 -5 19 -5 19 15 2 20 -18 20 -18 17 30 -1
26 5 71 13 98 l15 50 15 -33 c9 -17 19 -32 22 -32 4 0 7 29 7 64 -1 54 3 70
27 105 23 33 28 50 27 99 0 33 6 79 14 103 13 40 14 15 9 -250 -4 -200 -9
-306 -18 -332 -10 -28 -10 -42 -1 -59 7 -13 10 -58 8 -118 -2 -88 -1 -95 13
-80 14 14 16 58 19 319 5 480 6 545 14 558 5 8 21 -8 47 -46 26 -37 48 -59 63
-61 21 -3 21 -2 10 19 -13 25 -15 102 -4 182 9 61 9 63 28 143 18 75 15 202
-6 272 -9 28 -12 52 -8 52 4 0 32 -13 62 -30 30 -16 60 -30 67 -30 21 0 13 20
-12 30 -39 15 -96 70 -115 114 -11 22 -29 70 -41 106 -12 36 -37 94 -55 130
-33 63 -41 106 -36 194 1 28 2 28 19 13 10 -10 24 -17 30 -17 7 0 12 -5 12
-11 0 -8 4 -8 13 -1 20 17 15 212 -8 287 -10 33 -23 66 -28 73 -32 41 -33 99
-27 1281 1 175 -3 298 -8 303 -7 7 -10 1 -10 -13 1 -38 -14 -852 -15 -871 -1
-9 -5 -14 -9 -12 -12 8 -10 -80 2 -92 8 -8 6 -25 -5 -57 -12 -36 -14 -73 -10
-168 3 -68 9 -125 14 -129 9 -5 7 -57 -2 -66 -5 -5 -20 11 -108 114 -34 40
-76 81 -93 92 -17 10 -44 31 -61 45 -16 15 -43 34 -58 43 l-28 17 5 345 c3
190 9 518 12 730 3 212 7 402 8 423 2 20 -3 45 -10 55 -11 14 -14 5 -15 -68 0
-47 -3 -103 -5 -125 -4 -35 -8 -115 -18 -320 -1 -33 -6 -71 -10 -85 -4 -14 -2
-38 3 -53 12 -32 4 -67 -11 -45 -7 9 -8 7 -2 -7 11 -29 13 -183 3 -218 -5 -18
-5 -35 1 -42 6 -7 6 -15 -2 -23 -8 -8 -8 -15 0 -25 7 -8 9 -17 5 -21 -12 -11
-11 -366 0 -406 10 -34 11 -79 3 -87 -6 -6 -150 83 -238 146 -76 54 -77 56
-73 94 2 21 8 44 13 50 5 7 6 21 2 32 -4 11 -3 30 3 42 7 16 6 27 -2 37 -7 8
-10 19 -7 25 3 5 2 21 -4 35 -5 14 -6 26 -2 26 8 0 8 142 -3 540 -3 140 -7
310 -8 378 -2 97 -5 125 -17 132 -13 7 -15 -11 -13 -136 1 -86 -1 -142 -7
-139 -5 3 -6 -4 -2 -17 7 -27 14 -977 7 -996 -5 -15 -24 5 -92 95 -43 57 -153
184 -197 226 -25 24 -30 37 -32 88 -2 34 1 59 7 59 6 0 5 8 -2 21 -8 17 -8 23
2 30 10 6 13 56 11 230 -1 122 -6 227 -11 233 -5 6 -9 63 -9 126 -1 163 -1
174 -8 167 -4 -4 -8 -207 -9 -452 -2 -246 -5 -448 -7 -451 -6 -5 -252 90 -281
109 -20 13 -24 22 -20 53 7 65 9 451 3 469 -16 45 -22 -22 -25 -251 -1 -134
-5 -245 -9 -245 -3 -1 -34 4 -69 10 -54 11 -134 19 -217 23 -14 1 -28 6 -32
12 -4 6 -7 186 -7 400 0 214 -2 390 -4 393 -2 2 -9 -2 -14 -9z m-1155 -578
c46 -28 85 -50 87 -50 3 0 30 -16 62 -36 31 -20 85 -50 120 -66 35 -16 61 -33
58 -38 -3 -5 6 -7 20 -4 14 2 25 0 25 -6 0 -6 4 -9 8 -6 10 6 194 -54 202 -66
3 -3 12 -6 20 -6 52 3 110 -3 105 -12 -7 -12 38 -24 70 -18 13 3 26 2 27 -3 2
-4 35 -3 73 2 39 6 81 10 95 11 14 0 47 4 73 9 41 8 177 20 242 22 41 2 149
-15 184 -28 20 -7 45 -16 56 -21 11 -4 25 -8 30 -10 6 -1 62 -27 126 -58 64
-31 121 -56 125 -56 19 0 118 -96 173 -169 72 -94 105 -129 201 -210 41 -36
76 -67 78 -71 1 -4 -14 -7 -34 -8 -43 -2 -103 -43 -227 -155 -97 -89 -344
-207 -432 -207 -12 0 -28 -6 -34 -14 -9 -11 -6 -15 16 -19 39 -8 146 20 255
65 88 37 248 146 306 208 23 24 23 25 17 3 -10 -37 6 -27 61 34 l50 56 32 -16
c18 -9 57 -23 88 -32 54 -15 220 -112 319 -185 106 -78 197 -201 242 -324 42
-116 83 -296 67 -296 -3 0 -10 12 -17 28 -7 15 -29 54 -49 88 -23 37 -35 68
-32 80 3 12 -4 31 -20 49 -14 17 -26 33 -26 38 0 4 -11 13 -25 19 -18 8 -25
19 -25 38 0 15 -7 33 -15 40 -12 10 -15 10 -15 -4 0 -23 -21 -20 -27 4 -3 11
-8 20 -12 21 -3 0 -16 2 -29 3 -12 2 -37 17 -55 34 -18 18 -36 32 -39 32 -3 0
-32 17 -64 39 -33 21 -90 49 -128 62 -37 13 -79 34 -92 46 -13 12 -24 19 -24
15 0 -7 -57 -9 -217 -11 -61 0 -72 -3 -77 -19 -6 -18 -151 -81 -223 -97 -18
-3 -33 -10 -33 -15 0 -28 69 -9 205 56 44 21 87 37 95 36 8 -1 65 -2 125 -3
176 0 254 -25 399 -128 99 -70 98 -69 197 -187 74 -86 139 -179 139 -196 0 -5
-15 8 -32 29 -94 109 -126 142 -242 251 -71 66 -112 82 -301 119 -82 16 -99
17 -220 11 -46 -3 -92 2 -135 14 -80 22 -80 22 -80 -2 0 -26 40 -36 165 -39
69 -2 105 -7 116 -17 8 -8 50 -23 92 -33 77 -20 137 -46 149 -64 3 -6 21 -15
40 -21 22 -7 39 -22 50 -46 10 -19 18 -28 18 -20 0 13 1 13 10 0 13 -20 13
-40 -1 -40 -6 0 -25 10 -42 23 -46 32 -105 57 -109 45 -2 -5 -26 2 -53 15 -54
28 -76 26 -49 -4 17 -18 15 -19 -42 -21 -92 -2 -120 1 -166 17 -24 9 -56 18
-71 21 -15 3 -53 13 -83 23 -57 19 -76 9 -23 -13 17 -7 30 -17 29 -22 -1 -5
18 -15 43 -23 44 -14 45 -15 62 -78 13 -49 25 -69 49 -87 46 -35 89 -55 135
-62 33 -5 39 -9 30 -20 -16 -19 -112 -18 -152 1 -32 15 -77 70 -77 94 0 9 -8
11 -21 8 -15 -4 -23 1 -31 19 -15 32 -50 29 -58 -6 -6 -27 33 -157 68 -226 58
-113 259 -172 457 -134 28 5 66 12 85 15 19 3 49 9 65 13 44 11 51 10 98 -22
49 -34 158 -165 180 -217 8 -20 46 -64 86 -100 59 -52 74 -72 86 -113 17 -57
19 -123 5 -181 -6 -22 -12 -56 -16 -75 -3 -19 -8 -43 -11 -54 -3 -10 -5 -50
-4 -88 1 -40 -3 -67 -8 -63 -9 5 -27 111 -23 128 1 5 5 47 8 95 3 48 7 114 9
146 5 89 -32 191 -63 172 -7 -4 -4 -18 6 -39 14 -27 17 -68 18 -254 1 -123 -1
-223 -5 -223 -3 0 -23 30 -44 66 -46 78 -56 133 -49 263 11 207 6 234 -67 346
-32 50 -46 65 -49 52 -2 -10 3 -26 11 -35 45 -53 69 -113 69 -175 0 -100 -2
-106 -20 -57 -39 106 -105 190 -229 291 -17 15 -39 43 -47 64 -17 39 -43 44
-39 6 2 -11 2 -21 0 -21 -1 0 -17 4 -35 9 -17 5 -32 6 -32 2 0 -4 17 -13 39
-19 21 -7 44 -19 51 -27 7 -8 19 -15 27 -15 8 0 53 -39 102 -87 88 -89 151
-191 151 -245 -1 -21 -4 -19 -36 17 -47 54 -42 48 -102 106 -28 28 -52 56 -52
62 0 29 -59 119 -92 142 -49 33 -58 15 -13 -24 21 -18 51 -62 70 -105 30 -63
51 -88 145 -178 l110 -104 1 -55 c0 -30 3 -72 5 -94 l5 -40 -29 30 c-44 47
-74 93 -87 138 -16 56 -40 63 -33 10 7 -50 60 -135 128 -204 28 -29 57 -67 65
-85 22 -53 23 -110 2 -138 -12 -16 -16 -12 -47 36 -54 83 -72 118 -96 193 -21
66 -38 86 -40 47 -1 -27 40 -131 90 -228 55 -109 78 -198 59 -234 -7 -14 -18
-25 -24 -25 -7 0 -44 56 -82 124 -68 118 -71 127 -69 182 2 47 -1 59 -12 59
-18 0 -35 -55 -31 -99 1 -18 17 -55 36 -84 78 -124 90 -156 88 -242 -1 -95
-16 -150 -36 -133 -7 6 -13 15 -13 20 0 5 -15 42 -34 81 -18 40 -38 85 -45
101 -10 24 -14 26 -27 15 -20 -17 -11 -55 35 -143 36 -68 79 -201 69 -211 -3
-3 -13 13 -23 35 -10 22 -21 40 -25 40 -4 0 -10 8 -14 18 -3 9 -15 31 -26 47
-11 17 -22 37 -26 45 -3 8 -15 37 -27 64 -12 27 -23 53 -23 58 -1 4 -2 9 -4
11 -6 8 -12 50 -12 97 0 51 37 175 62 205 5 6 12 26 15 45 9 47 10 51 23 83
16 38 15 104 0 110 -10 3 -9 9 3 23 16 20 17 27 5 61 -4 13 -3 30 2 39 9 16
-13 112 -29 124 -3 3 -14 28 -23 57 -9 28 -24 57 -32 63 -7 7 -14 17 -14 22 0
15 -79 87 -114 104 l-31 16 30 -30 c17 -16 32 -28 35 -27 10 5 30 -24 20 -30
-5 -3 -24 8 -43 25 -19 16 -39 30 -45 30 -6 0 -12 4 -14 8 -4 10 -116 85 -141
95 -29 11 -19 -3 47 -67 87 -82 121 -163 117 -272 -2 -65 12 -129 46 -201 32
-67 34 -78 13 -79 -34 -2 -39 -5 -34 -17 2 -7 -2 -30 -11 -50 -13 -31 -18 -36
-34 -28 -10 6 -28 26 -42 45 -13 19 -32 37 -41 40 -13 3 -18 15 -19 43 -5 234
-48 397 -145 549 -19 29 -34 56 -34 59 0 10 -53 85 -60 85 -4 0 -12 -11 -18
-24 -8 -19 -8 -27 2 -35 8 -7 17 -26 21 -44 4 -17 9 -37 10 -44 16 -69 25
-117 21 -120 -6 -6 -28 47 -51 120 -29 91 -55 52 -32 -48 10 -43 12 -241 2
-284 -3 -14 -7 -35 -9 -46 -3 -11 -11 -41 -19 -68 -9 -26 -11 -49 -6 -53 11
-6 29 4 29 16 0 5 12 21 28 37 15 15 26 26 25 24 -1 -2 2 -12 8 -22 8 -16 6
-19 -10 -19 -13 0 -26 -15 -42 -47 -12 -27 -48 -75 -80 -108 -66 -69 -107
-138 -117 -197 -5 -27 -15 -46 -31 -57 l-24 -16 6 45 c13 84 23 119 58 191 16
33 29 63 29 67 0 5 11 19 25 32 14 13 25 31 25 41 0 9 6 22 13 28 24 19 47
130 52 241 1 25 5 59 9 75 6 24 5 27 -4 15 -8 -11 -9 1 -4 50 23 199 -5 343
-86 439 -22 26 -40 53 -40 60 0 37 -232 218 -287 224 -16 2 -35 6 -43 9 -82
31 -138 41 -235 44 -153 4 -284 -29 -354 -89 -19 -16 -49 -36 -68 -43 -38 -16
-146 -126 -184 -187 -14 -23 -37 -70 -50 -104 -22 -59 -38 -79 -40 -50 0 6 -2
22 -5 34 -2 12 1 25 6 28 7 4 6 13 -1 26 -5 11 -8 32 -6 47 5 31 49 164 57
172 3 3 14 23 25 45 24 49 137 165 160 165 10 0 35 10 58 23 30 16 41 19 45 9
3 -10 7 -10 19 0 18 15 39 27 122 70 80 42 146 107 180 178 21 46 25 69 25
140 -1 87 -3 97 -53 187 -31 58 -118 144 -169 169 -57 27 -204 59 -267 58
-139 -2 -227 -26 -337 -90 -27 -16 -93 -80 -177 -172 -52 -56 -82 -100 -101
-146 -16 -36 -27 -66 -25 -66 2 0 -3 -21 -11 -47 -8 -25 -14 -61 -14 -80 0
-18 -4 -33 -9 -33 -24 0 14 260 48 328 5 9 15 31 22 47 15 34 66 113 86 133
31 32 8 47 -49 32 -87 -24 -259 -147 -384 -277 -34 -34 -69 -63 -78 -63 -9 0
-16 -7 -16 -16 0 -19 -25 -45 -45 -48 -8 -1 -31 -20 -50 -42 -19 -21 -35 -33
-35 -26 0 8 -11 0 -25 -16 -20 -24 -60 -42 -90 -41 -3 0 -36 -16 -73 -35 -59
-31 -192 -86 -209 -86 -3 0 25 22 63 50 38 27 74 54 81 60 7 5 16 10 22 10 5
0 11 3 13 8 2 4 23 23 48 43 25 20 101 92 169 158 105 104 235 211 254 211 6
0 137 73 177 99 14 9 32 17 40 17 33 4 126 15 150 19 162 24 179 28 146 41 -9
3 -62 -2 -119 -12 -138 -25 -471 -28 -561 -6 -92 23 -228 71 -256 90 -14 9
-37 22 -51 28 -47 21 -314 229 -297 232 18 4 222 -86 288 -127 218 -135 316
-162 575 -154 83 2 166 8 185 12 19 4 62 9 95 10 33 1 98 8 145 15 47 7 153
12 237 12 160 -1 189 8 63 19 -41 4 -88 9 -105 11 -66 8 -262 5 -290 -6 -16
-6 -48 -14 -70 -16 -22 -3 -51 -7 -65 -10 -61 -10 -185 -18 -300 -18 -102 0
-137 4 -194 23 -67 22 -235 99 -260 120 -7 6 -53 31 -102 56 -77 40 -84 45
-49 40 22 -4 76 -24 120 -45 228 -108 407 -138 680 -115 113 10 161 17 240 31
78 15 145 15 188 0 69 -23 92 -27 202 -33 55 -2 145 -15 199 -29 115 -28 148
-30 140 -10 -5 13 -21 18 -104 32 -14 3 -43 10 -65 16 -22 5 -84 12 -138 13
-54 2 -112 7 -130 10 -101 20 -307 113 -402 181 -69 49 -181 167 -204 215 -8
16 -18 29 -23 29 -4 0 -8 5 -8 10 0 17 12 12 98 -40z m1114 -82 c-6 -6 -8 -1
-7 14 3 32 7 36 12 14 3 -10 1 -22 -5 -28z m18 -128 c0 -11 -2 -20 -4 -20 -2
0 -6 9 -9 20 -3 11 -1 20 4 20 5 0 9 -9 9 -20z m-905 -116 l40 -37 -65 -13
c-36 -6 -67 -10 -70 -9 -3 2 -7 33 -8 69 l-3 66 33 -20 c18 -10 51 -36 73 -56z
m-745 -244 c19 -9 56 -23 83 -30 26 -7 47 -16 47 -20 0 -4 -19 -27 -42 -51
-52 -53 -71 -77 -122 -149 -22 -30 -41 -57 -43 -60 -9 -11 -18 22 -17 57 3 58
4 59 14 43 8 -12 10 -10 11 10 1 14 1 39 0 55 0 17 -2 41 -2 55 -1 14 -7 37
-15 51 -10 21 -12 41 -5 67 2 5 57 -12 91 -28z m360 -75 c14 -2 29 -3 35 -4 5
-1 -2 -9 -15 -18 -14 -9 -41 -31 -61 -49 -20 -17 -47 -35 -59 -39 -12 -4 -20
-8 -18 -10 2 -2 -65 -74 -149 -160 -149 -150 -308 -285 -338 -285 -8 0 -15 -6
-15 -12 -1 -20 -153 -90 -207 -95 -44 -4 -47 -3 -29 11 10 8 22 13 27 11 4 -3
10 -1 14 5 3 5 13 10 20 10 21 0 123 73 195 137 64 59 126 136 253 318 93 133
93 134 137 168 36 28 49 29 210 12z m346 -47 c-9 -13 -21 -33 -28 -45 -6 -13
-15 -23 -20 -23 -16 0 2 55 24 72 32 24 44 22 24 -4z m-76 -78 c0 -27 -11 -83
-24 -124 -55 -168 -60 -346 -12 -451 26 -58 30 -92 27 -197 -1 -34 -5 -48 -15
-48 -16 0 -65 58 -131 155 -55 79 -102 126 -150 149 l-34 16 -3 126 c-2 69 0
133 4 142 23 57 286 282 330 282 4 0 8 -22 8 -50z m643 9 c9 -10 13 -26 10
-45 -3 -16 -6 -45 -8 -64 -2 -19 -6 -46 -10 -60 -5 -19 -4 -22 4 -10 9 13 11
11 11 -7 0 -12 -5 -25 -10 -28 -6 -4 -8 -10 -5 -15 3 -5 0 -12 -6 -15 -5 -4
-8 -13 -5 -20 3 -8 2 -15 -2 -17 -13 -6 -53 -88 -43 -88 6 0 14 -15 19 -32 5
-18 15 -34 23 -34 8 -1 18 -2 23 -3 5 0 3 -7 -3 -15 -9 -11 -7 -15 9 -19 11
-3 20 -11 20 -17 0 -7 -8 -10 -20 -7 -12 3 -20 0 -20 -8 0 -7 -14 -19 -32 -26
-18 -7 -40 -20 -50 -29 -45 -38 -108 -104 -108 -111 0 -5 -4 -9 -8 -9 -20 0
-34 140 -38 387 l-4 262 22 12 c64 34 203 45 231 18z m176 -85 c46 -38 61 -75
62 -146 1 -76 -7 -113 -34 -153 -30 -44 -53 -64 -92 -81 l-35 -14 -1 37 c0 21
-3 119 -5 217 -4 137 -2 181 7 187 15 9 54 -10 98 -47z m-458 29 c1 -5 3 -52
4 -105 3 -94 -5 -119 -20 -61 -3 15 -20 47 -36 71 l-30 44 28 29 c27 27 51 37
54 22z m2446 -70 c-3 -10 -5 -4 -5 12 0 17 2 24 5 18 2 -7 2 -21 0 -30z
m-2538 -30 c10 -10 28 -37 40 -61 20 -39 20 -44 7 -71 -9 -16 -13 -31 -9 -34
7 -8 11 -127 4 -127 -24 1 -32 20 -25 56 11 54 8 80 -21 165 -33 97 -32 106 4
72z m-24 -90 c18 -54 25 -147 12 -159 -9 -9 -149 39 -154 53 -9 23 100 178
117 168 4 -2 15 -30 25 -62z m692 25 c-3 -8 -6 -5 -6 6 -1 11 2 17 5 13 3 -3
4 -12 1 -19z m-1307 -145 c0 -54 3 -108 6 -120 l6 -23 -72 26 c-40 14 -88 24
-109 23 -79 -4 -80 6 -8 54 30 20 78 58 108 86 30 28 57 51 62 51 4 0 7 -44 7
-97z m1008 4 c-4 -29 -24 -32 -31 -6 -8 28 -1 40 19 32 8 -3 14 -15 12 -26z
m7 -47 c3 -5 2 -10 -4 -10 -5 0 -13 5 -16 10 -3 6 -2 10 4 10 5 0 13 -4 16
-10z m-289 -64 c10 -8 17 -17 14 -19 -3 -3 -16 3 -29 14 -27 22 -15 26 15 5z
m-869 -63 c48 -26 125 -182 116 -236 -7 -48 -23 -58 -24 -15 -1 64 -9 103 -24
114 -8 6 -25 29 -38 52 -21 37 -60 75 -113 109 -29 18 43 -2 83 -24z m745 -1
c43 -25 22 -77 -37 -88 -43 -8 -81 17 -91 59 -5 23 -2 34 11 43 21 16 78 9
117 -14z m-834 -16 c64 -33 140 -159 146 -241 5 -74 -18 -137 -69 -192 -52
-55 -109 -137 -119 -171 -4 -12 -22 -55 -40 -94 l-33 -71 -2 244 c-4 592 -7
525 27 537 32 11 50 9 90 -12z m2860 -37 c114 -26 162 -52 160 -84 -3 -30 -3
-30 -36 -7 -23 16 -104 50 -137 59 -103 25 -158 42 -166 50 -14 14 81 5 179
-18z m-1984 -43 c-3 -9 -26 -28 -51 -43 -40 -23 -48 -25 -83 -14 -47 14 -86
44 -76 59 9 15 21 15 38 -1 30 -28 62 -35 105 -20 23 8 47 21 54 29 15 18 22
13 13 -10z m1 -84 c-24 -58 -48 -85 -100 -111 -43 -21 -126 -33 -140 -20 -4 4
-9 130 -6 153 1 4 12 1 26 -8 16 -10 49 -18 84 -19 48 -1 66 3 97 25 22 14 42
24 46 21 4 -2 1 -21 -7 -41z m2307 -65 c57 -56 129 -134 161 -172 l57 -69 -1
-88 c-1 -48 -3 -88 -5 -88 -2 0 -26 14 -55 30 -61 37 -116 44 -184 25 -27 -7
-57 -13 -65 -13 -8 0 -25 -4 -37 -7 -20 -6 -21 -4 -16 37 3 23 5 54 4 68 -5
62 -4 118 3 157 l8 42 27 -17 c14 -9 56 -38 93 -64 36 -27 68 -48 72 -48 17 0
2 51 -28 96 -30 44 -132 143 -157 152 -16 6 -11 62 6 62 8 0 61 -46 117 -103z
m-1276 52 c38 -11 90 -31 115 -44 25 -14 48 -22 51 -20 3 3 12 -5 21 -18 8
-13 28 -29 44 -36 32 -14 121 -115 143 -163 8 -18 18 -36 23 -39 12 -9 75
-199 82 -249 17 -114 -6 -300 -37 -300 -6 0 -8 -3 -5 -7 14 -13 -74 -154 -132
-213 -34 -34 -61 -66 -61 -72 0 -6 -3 -8 -6 -5 -4 4 -19 -2 -33 -12 -48 -35
-198 -99 -247 -106 -51 -7 -169 -7 -207 1 -12 2 -38 6 -57 9 -64 8 -191 54
-242 86 -103 66 -221 235 -250 358 -6 25 -16 57 -22 69 -9 22 -12 215 -4 252
20 82 68 187 110 243 36 47 151 149 212 187 90 57 123 70 210 84 16 3 31 8 34
11 15 14 194 4 258 -16z m739 -48 c14 -1 16 -121 3 -121 -15 0 -78 69 -78 86
0 8 -4 14 -9 14 -5 0 -12 7 -15 15 -5 13 2 15 42 11 26 -2 52 -5 57 -5z m225
-5 c36 -7 78 -20 93 -27 27 -12 28 -16 24 -63 -2 -28 -17 -82 -32 -121 -21
-53 -28 -84 -26 -130 l2 -60 -60 -18 c-52 -15 -166 -26 -176 -16 -1 2 -5 45
-7 96 l-4 92 41 16 c41 15 85 48 85 63 0 5 -23 8 -51 8 -40 0 -53 4 -62 20
-11 19 -19 132 -10 147 7 12 113 8 183 -7z m220 -52 c0 3 11 -4 25 -16 14 -12
23 -23 20 -26 -5 -6 -94 51 -95 61 0 4 11 0 25 -9 14 -9 25 -14 25 -10z
m-2901 -55 c-16 -10 -23 -4 -14 10 3 6 11 8 17 5 6 -4 5 -9 -3 -15z m200 -9
c21 -29 117 -81 176 -96 14 -3 25 -13 25 -20 0 -11 -13 -14 -62 -10 -65 4
-205 -16 -239 -34 -18 -10 -19 -7 -19 55 0 59 3 70 28 94 24 25 45 38 63 40 3
1 15 -13 28 -29z m516 -49 c-14 -34 -17 -143 -5 -191 14 -59 10 -70 -18 -42
-37 37 -108 79 -179 106 -61 23 -94 49 -80 63 2 2 24 6 47 8 47 5 98 19 147
41 17 8 35 14 41 14 5 0 15 7 22 15 15 19 34 9 25 -14z m1576 -51 c41 -48 66
-57 54 -19 -7 22 1 23 35 4 14 -8 40 -14 58 -15 17 0 32 -3 33 -7 7 -61 6 -73
-3 -67 -7 4 -8 2 -4 -5 13 -20 18 -63 6 -56 -5 3 -10 1 -10 -4 0 -6 4 -11 10
-11 5 0 7 -7 4 -15 -9 -21 -22 -19 -91 14 -64 31 -93 60 -113 113 -6 18 -16
42 -20 53 -14 34 -19 65 -10 65 5 0 28 -22 51 -50z m-2641 8 c0 -36 -10 -32
-14 6 -2 14 1 26 5 26 5 0 9 -14 9 -32z m396 -45 c-2 -27 -5 -48 -5 -49 -1 0
-22 -16 -48 -34 -27 -19 -51 -39 -55 -44 -5 -7 -8 -6 -8 2 0 31 90 172 111
172 6 0 8 -18 5 -47z m498 -87 c65 -32 93 -55 194 -163 12 -13 22 -30 22 -37
0 -8 6 -16 14 -19 17 -7 46 -63 46 -89 0 -11 -5 -16 -10 -13 -6 4 -10 12 -9
18 4 25 -21 64 -77 122 -62 64 -100 97 -124 108 -17 8 -36 20 -102 65 -27 18
-53 30 -57 27 -5 -2 -15 3 -22 12 -13 15 -11 16 20 10 19 -4 66 -23 105 -41z
m-154 9 c25 -8 59 -26 76 -40 16 -14 48 -38 71 -55 45 -32 136 -138 198 -230
49 -72 88 -150 76 -150 -6 0 -13 5 -16 10 -4 6 -31 25 -61 41 -30 17 -54 36
-54 43 0 39 -117 210 -207 302 -40 41 -61 54 -104 65 -65 16 -66 16 -79 18 -5
0 -10 5 -10 10 0 12 51 6 110 -14z m-55 -44 c67 -19 66 -16 68 -149 1 -67 -1
-123 -3 -125 -3 -3 -36 -7 -75 -11 -77 -6 -102 -11 -187 -30 -32 -7 -58 -13
-58 -12 -1 0 -3 19 -6 41 -4 28 -2 36 5 25 5 -8 13 -11 17 -7 10 10 9 94 -1
142 l-9 40 -6 -50 c-6 -46 -7 -44 -8 27 l-2 76 48 17 c26 9 56 21 67 25 26 10
99 6 150 -9z m2778 -30 c46 -15 110 -83 147 -154 31 -60 65 -165 57 -174 -6
-6 -57 68 -57 83 0 19 -39 100 -53 113 -21 17 -28 2 -13 -28 8 -14 18 -42 24
-61 5 -19 13 -44 18 -54 18 -45 -18 -1 -52 64 -20 39 -39 70 -43 70 -7 0 -45
29 -93 72 -16 14 -43 32 -59 38 -36 15 -33 32 6 37 16 3 31 6 33 7 5 5 50 -2
85 -13z m-2544 -166 c37 -53 74 -126 67 -132 -3 -3 -25 1 -48 10 -24 9 -59 19
-78 22 -71 12 -68 8 -72 108 -5 150 -5 150 54 86 27 -30 62 -72 77 -94z m-528
103 c6 -120 5 -227 -1 -243 -4 -11 -17 -21 -29 -22 -12 -1 -27 -8 -35 -16 -8
-7 -27 -24 -43 -38 -15 -13 -44 -48 -62 -76 -19 -29 -36 -51 -38 -49 -5 4 23
133 48 225 11 41 31 87 44 103 14 16 25 34 25 39 0 6 6 16 13 24 6 7 23 27 37
44 29 37 40 39 41 9z m2309 -38 c6 -11 8 -20 6 -20 -3 0 -10 9 -16 20 -6 11
-8 20 -6 20 3 0 10 -9 16 -20z m-2273 -102 c-3 -7 -5 -2 -5 12 0 14 2 19 5 13
2 -7 2 -19 0 -25z m2349 -98 c3 -14 9 -38 14 -55 11 -33 14 -193 6 -265 -3
-25 -8 -81 -11 -125 -6 -79 -30 -219 -41 -237 -6 -9 -7 -17 -19 -108 -3 -25
-10 -67 -15 -95 -5 -27 -12 -68 -15 -89 -3 -22 -8 -42 -10 -44 -6 -6 2 303 9
348 8 57 19 125 21 130 9 34 18 79 20 95 2 11 8 38 14 60 29 108 31 247 6 385
-3 14 -7 41 -9 60 l-5 35 16 -35 c8 -19 17 -46 19 -60z m351 -50 c39 -42 61
-93 79 -185 11 -54 13 -169 3 -215 -5 -25 -11 -56 -13 -70 -3 -14 -14 -65 -26
-114 -11 -50 -22 -98 -23 -108 -6 -36 -15 -27 -41 42 -44 120 -34 157 57 215
15 9 27 23 27 29 0 6 -20 33 -44 58 -57 61 -74 115 -80 260 -3 64 -10 126 -15
137 -27 49 3 30 76 -49z m-272 -85 c10 -39 19 -106 20 -150 4 -85 -16 -227
-34 -249 -6 -8 -9 -21 -5 -30 3 -9 1 -16 -5 -16 -6 0 -11 -9 -11 -21 0 -11 4
-17 10 -14 6 3 7 -1 4 -9 -3 -9 -10 -16 -14 -16 -8 0 -22 -41 -25 -76 -1 -11
-5 -25 -8 -31 -11 -17 -53 -202 -56 -245 0 -10 -5 -18 -10 -18 -5 0 -4 21 1
48 12 58 16 80 27 157 5 33 14 73 20 88 6 16 13 43 15 60 3 18 12 70 20 117
29 171 39 378 21 470 -11 62 12 10 30 -65z m-2165 30 c14 -3 32 -7 40 -9 13
-3 15 -54 16 -384 0 -210 -3 -382 -8 -382 -4 0 -8 5 -8 12 0 9 -3 9 -11 1 -13
-13 -4 -33 17 -33 19 0 18 -13 -5 -41 -10 -13 -29 -48 -41 -76 -12 -29 -24
-53 -27 -53 -2 0 -26 11 -53 25 -53 27 -100 66 -100 83 0 6 -7 15 -17 20 -16
10 -24 72 -22 190 0 28 -4 42 -13 42 -8 1 -5 6 6 15 12 9 15 15 7 15 -8 0 -11
6 -7 15 3 9 -1 18 -9 21 -11 5 -12 11 -5 24 7 13 6 20 -3 23 -9 3 -9 7 2 20 7
10 10 17 5 17 -5 0 -9 20 -9 45 0 25 3 45 7 45 11 0 -3 33 -19 45 -8 6 -15 45
-18 108 -5 84 -3 97 10 97 11 0 15 6 11 18 -8 25 19 55 79 86 49 27 102 30
175 11z m180 -97 c28 -27 50 -56 50 -63 0 -7 3 -15 8 -17 4 -1 20 -30 37 -63
16 -33 47 -88 68 -122 33 -53 37 -65 27 -84 -7 -12 -11 -50 -8 -91 2 -55 0
-72 -12 -78 -8 -4 -40 -19 -70 -32 -30 -14 -82 -46 -114 -72 -33 -25 -63 -46
-67 -46 -6 0 -9 113 -11 555 0 182 -1 174 22 168 11 -3 43 -28 70 -55z m1675
-10 c-13 -98 -124 -282 -153 -253 -3 3 2 13 11 22 20 23 67 117 72 146 7 34
26 77 35 77 5 0 13 14 19 30 16 46 24 36 16 -22z m165 22 c0 -5 -2 -10 -4 -10
-3 0 -8 5 -11 10 -3 6 -1 10 4 10 6 0 11 -4 11 -10z m-2325 -255 c-4 -282 -5
-296 -14 -291 -9 6 -50 130 -58 176 -2 14 -7 60 -10 103 -5 69 -3 85 18 130
28 62 51 84 60 59 3 -9 5 -89 4 -177z m2298 53 c-4 -38 -51 -137 -85 -178 -38
-45 -128 -105 -128 -85 0 24 54 102 111 160 37 39 75 87 84 108 8 20 17 37 19
37 1 0 1 -19 -1 -42z m1027 -53 c-6 -30 -15 -57 -19 -59 -7 -5 2 65 14 114 2
8 4 22 6 30 1 8 4 5 6 -8 2 -12 -1 -47 -7 -77z m-1340 -15 c0 -18 -40 -50 -62
-50 -13 0 -34 -3 -48 -7 -22 -6 -23 -5 -12 10 8 9 25 14 40 13 30 -4 62 13 62
31 0 7 5 13 10 13 6 0 10 -4 10 -10z m25 -86 c-8 -21 -21 -42 -29 -48 -110
-90 -129 -101 -180 -101 -28 0 -55 -3 -61 -6 -17 -10 -105 3 -174 27 -24 8 18
44 89 76 67 30 78 33 190 44 36 3 88 14 115 24 28 9 53 18 58 19 4 0 0 -15 -8
-35z m563 -24 c7 0 12 -7 12 -16 0 -9 20 -47 45 -84 25 -37 45 -75 45 -84 0
-9 4 -16 9 -16 12 0 32 -85 25 -105 -5 -11 0 -18 15 -22 17 -4 21 -12 18 -35
-1 -16 -7 -32 -12 -36 -6 -4 -11 -18 -12 -32 -7 -73 -13 -100 -33 -153 -12
-32 -23 -57 -25 -55 -1 2 -5 32 -8 68 -8 90 -44 187 -62 169 -1 -2 5 -35 15
-74 19 -78 18 -147 -3 -270 -11 -61 -15 -71 -17 -45 -2 19 -2 46 -1 58 1 13
-2 29 -8 36 -5 6 -12 86 -15 176 -3 91 -8 179 -11 195 -7 37 -45 147 -56 159
-18 21 -21 -31 -5 -93 39 -153 40 -267 2 -395 -14 -48 -26 -98 -26 -110 0 -12
-4 -26 -10 -32 -5 -5 -11 -19 -13 -31 -4 -31 -17 -41 -17 -15 0 12 -4 22 -8
22 -25 0 -57 227 -48 334 7 89 15 136 27 159 5 9 7 17 5 17 -3 0 10 42 28 94
19 52 44 129 56 172 12 44 25 83 28 88 3 5 15 -3 26 -17 12 -15 27 -27 34 -27z
m-299 -11 c-21 -90 -115 -248 -194 -325 -65 -63 -189 -112 -201 -79 -7 17 39
92 54 88 7 -3 19 10 27 30 11 26 19 34 33 31 12 -4 27 7 47 33 17 21 39 46 50
55 37 33 140 135 153 151 6 9 12 22 12 30 0 15 9 27 21 27 4 0 3 -19 -2 -41z
m-1469 -101 c0 -7 -18 -13 -72 -21 -23 -3 -25 -1 -19 17 4 12 6 32 5 46 -6 54
6 56 46 10 22 -25 40 -48 40 -52z m580 48 c0 -2 -7 -7 -16 -10 -8 -3 -12 -2
-9 4 6 10 25 14 25 6z m596 -44 c-6 -62 -13 -79 -52 -127 -40 -51 -74 -117
-74 -147 0 -36 -12 -45 -58 -51 -42 -4 -42 -4 -28 17 37 51 75 131 85 174 5
26 14 59 19 72 11 27 89 110 104 110 5 0 7 -21 4 -48z m-441 -23 c44 -10 97
-23 119 -30 37 -10 38 -11 17 -25 -12 -8 -25 -13 -30 -9 -5 3 -12 1 -16 -5 -8
-13 -45 -13 -46 0 -1 6 -3 15 -4 20 -1 6 -3 13 -4 18 -1 4 -7 -4 -14 -18 -10
-19 -20 -25 -43 -23 l-29 2 28 -10 c28 -11 37 -28 15 -30 -7 0 -22 -3 -33 -5
-38 -9 -126 -12 -177 -5 -66 8 -78 31 -16 31 24 0 57 4 74 9 17 5 37 6 43 1
15 -9 61 -1 61 11 0 5 -3 8 -7 8 -23 -4 -35 4 -45 29 l-11 27 -10 -27 c-7 -19
-20 -28 -44 -33 -35 -6 -73 1 -73 14 0 4 -7 16 -16 27 -15 18 -15 17 -10 -14
l6 -33 -55 5 c-63 5 -72 -5 -17 -22 25 -8 29 -10 10 -8 -15 2 -25 -1 -22 -5 3
-5 17 -9 31 -9 15 0 24 -3 20 -6 -9 -10 -108 7 -101 17 3 5 1 9 -5 9 -5 0 -11
-6 -14 -12 -3 -9 -9 -7 -20 7 -8 11 -19 20 -24 21 -4 0 -20 4 -35 8 -39 11
-25 26 17 19 23 -4 47 1 72 13 116 55 259 67 408 33z m-545 -59 c-8 -5 -17 -7
-19 -4 -3 3 1 9 9 14 8 5 17 7 19 4 3 -3 -1 -9 -9 -14z m845 -10 c-7 -38 -66
-147 -106 -196 -26 -32 -55 -54 -82 -65 -53 -19 -117 -47 -140 -59 -37 -21
-114 -42 -160 -44 -80 -4 -254 51 -276 86 -9 14 -8 16 7 12 9 -4 4 3 -12 14
-16 11 -35 18 -41 15 -7 -2 -31 7 -54 21 -22 14 -45 26 -50 26 -5 0 -11 3 -13
8 -4 10 -107 62 -123 62 -8 0 -17 5 -21 12 -9 14 147 5 191 -12 17 -7 44 -13
60 -16 17 -2 48 -7 70 -11 44 -8 55 -10 70 -12 6 -1 4 -5 -3 -10 -8 -4 53 -7
140 -6 143 1 151 1 118 -13 -23 -10 -78 -16 -160 -18 -168 -3 -158 -2 -140
-14 8 -5 66 -10 128 -10 123 0 209 21 267 64 37 28 205 98 205 86 0 -4 -15
-28 -33 -52 -38 -50 -139 -112 -212 -129 -80 -19 -159 -42 -167 -48 -4 -3 -3
-12 1 -20 7 -11 13 -10 37 2 16 8 45 17 64 21 46 7 172 59 213 87 48 34 81 71
113 125 25 45 89 113 106 114 4 0 5 -9 3 -20z m423 -150 c-3 -47 -12 -67 -57
-135 -59 -88 -92 -130 -104 -132 -4 -1 -17 -12 -28 -25 l-20 -23 5 35 c9 62
15 83 26 90 6 4 12 18 14 31 5 39 17 60 91 159 76 101 80 101 73 0z m-2184 45
c-4 -8 -8 -15 -10 -15 -2 0 -4 7 -4 15 0 8 4 15 10 15 5 0 7 -7 4 -15z m1894
-181 c-29 -30 -57 -54 -61 -54 -12 0 -55 -34 -128 -98 -35 -31 -65 -50 -72
-46 -7 4 -9 4 -5 -1 4 -4 -7 -19 -25 -33 -66 -55 -129 -118 -142 -142 -21 -40
-75 -97 -75 -79 0 25 32 111 55 149 31 50 194 178 208 163 3 -3 19 4 34 16 64
50 122 91 129 91 4 0 31 23 61 51 71 68 91 53 21 -17z m-1606 20 c-2 -10 -6
-53 -9 -94 -6 -96 23 -221 72 -302 36 -60 37 -74 4 -35 -23 26 -102 177 -93
177 4 0 1 7 -6 16 -20 23 -18 184 3 214 8 12 13 29 10 38 -4 10 -2 13 8 10 8
-3 13 -14 11 -24z m1558 7 c0 -15 -60 -29 -122 -29 -31 0 -71 -4 -90 -9 -27
-7 -18 -9 57 -13 l90 -5 -37 -17 c-20 -9 -46 -14 -57 -11 -21 5 -99 -9 -146
-28 -27 -10 -28 -12 -10 -19 11 -4 25 -3 32 2 6 5 22 11 35 13 102 17 110 13
49 -22 -39 -22 -54 -26 -156 -38 -57 -6 -105 -23 -105 -36 0 -5 13 -3 30 6 38
20 110 20 110 1 0 -8 -14 -18 -32 -21 -18 -4 -50 -16 -70 -26 -44 -22 -128
-107 -128 -129 0 -9 3 -11 8 -5 12 17 104 77 109 71 3 -2 -20 -29 -50 -58 -56
-54 -94 -105 -85 -114 10 -9 35 7 48 32 16 28 34 32 25 5 -3 -10 -8 -42 -11
-72 -3 -32 -11 -59 -20 -66 -12 -9 -13 -16 -5 -32 18 -32 12 -38 -10 -11 -43
53 -71 132 -72 200 -1 139 113 302 259 371 38 18 85 33 104 33 19 1 38 5 41
10 13 17 209 33 209 17z m413 -33 c-4 -57 -11 -60 -11 -4 0 25 3 46 7 46 4 0
6 -19 4 -42z m-304 -87 c-22 -138 -55 -177 -186 -217 -70 -21 -87 -24 -94 -12
-7 9 -11 10 -16 2 -11 -17 -143 -50 -143 -37 0 9 109 106 143 126 34 21 43 17
28 -11 -13 -24 -15 -49 -3 -38 4 4 19 29 33 54 18 34 44 59 90 89 35 24 65 39
67 34 6 -18 -27 -67 -77 -114 -64 -60 -51 -61 17 -1 56 49 92 101 92 130 0 16
48 69 56 61 2 -2 -1 -31 -7 -66z m278 3 c3 -27 3 -47 0 -44 -3 3 -8 27 -12 55
-3 27 -3 47 0 44 3 -4 8 -28 12 -55z m513 6 c0 -5 -2 -10 -4 -10 -3 0 -8 5
-11 10 -3 6 -1 10 4 10 6 0 11 -4 11 -10z m-294 -147 c3 -18 -25 -78 -32 -70
-3 2 1 17 7 33 7 16 11 38 10 49 -3 24 12 12 15 -12z m-1504 -495 c-9 -9 -12
-7 -12 12 0 19 3 21 12 12 9 -9 9 -15 0 -24z"/>
<path d="M2711 3886 c4 -4 17 -9 29 -11 13 -2 35 -18 49 -34 14 -17 49 -42 76
-57 28 -15 58 -35 68 -45 10 -11 24 -19 31 -19 8 0 21 -11 30 -25 9 -13 34
-30 57 -36 23 -7 43 -18 46 -25 3 -7 11 -10 18 -7 8 2 20 1 27 -4 19 -12 131
-13 145 -1 7 5 17 7 24 3 8 -5 9 -1 4 16 l-7 23 33 -22 c52 -32 46 -40 -28
-42 -37 0 -93 -2 -123 -3 -30 -2 -73 2 -95 9 -67 20 -125 46 -125 55 0 5 -4 9
-10 9 -5 0 -24 13 -42 29 -152 136 -177 149 -300 166 -36 5 -96 -10 -85 -21 3
-3 20 -7 39 -10 28 -4 55 -10 91 -19 4 -2 16 -3 26 -4 11 0 26 -7 33 -15 8 -7
27 -20 44 -29 16 -8 58 -40 92 -71 121 -108 228 -141 442 -137 164 4 155 2
155 36 0 26 -5 32 -42 43 -26 9 -58 31 -86 61 -76 82 -106 95 -217 96 -132 2
-174 11 -255 54 -40 22 -87 39 -110 40 -22 2 -37 0 -34 -3z m475 -137 c3 -5
16 -9 29 -9 32 0 40 -16 12 -24 -55 -15 -111 -3 -144 30 -11 10 -8 13 14 16
38 4 82 -2 89 -13z"/>
<path d="M1245 3820 c-3 -6 1 -7 9 -4 18 7 21 14 7 14 -6 0 -13 -4 -16 -10z"/>
<path d="M3748 3273 c7 -3 16 -2 19 1 4 3 -2 6 -13 5 -11 0 -14 -3 -6 -6z"/>
<path d="M4060 3101 c0 -6 4 -13 10 -16 6 -3 7 1 4 9 -7 18 -14 21 -14 7z"/>
<path d="M3306 3082 c-39 -38 208 -90 284 -59 l25 10 -25 7 c-14 5 -54 8 -90
9 -36 1 -93 10 -127 20 -34 10 -64 16 -67 13z"/>
<path d="M4090 3081 c0 -5 5 -13 10 -16 6 -3 10 -2 10 4 0 5 -4 13 -10 16 -5
3 -10 2 -10 -4z"/>
<path d="M1313 3372 c-18 -3 -23 -10 -23 -35 -1 -74 -2 -183 -1 -194 1 -7 8
-13 16 -13 18 0 21 80 4 97 -13 13 -2 76 12 67 5 -3 9 2 9 11 0 9 4 14 9 11 4
-3 6 -17 4 -31 -3 -13 -9 -23 -13 -20 -4 3 -10 -4 -13 -14 -3 -14 0 -17 14
-14 25 7 32 33 23 88 -7 50 -9 53 -41 47z m14 -39 c-16 -16 -17 -16 -17 0 0
10 5 15 10 12 6 -3 10 -1 10 6 0 7 3 9 7 5 4 -3 -1 -14 -10 -23z"/>
<path d="M2100 3424 c0 -6 7 -19 15 -30 8 -10 14 -14 14 -9 0 6 -6 19 -14 29
-8 11 -15 15 -15 10z"/>
<path d="M3975 2560 c3 -5 8 -10 11 -10 2 0 4 5 4 10 0 6 -5 10 -11 10 -5 0
-7 -4 -4 -10z"/>
<path d="M2609 2908 c-6 -27 -5 -39 4 -45 19 -12 37 -12 34 -1 -1 6 4 13 12
16 8 3 11 0 7 -7 -4 -6 0 -11 9 -11 11 0 15 7 13 23 -2 18 -10 23 -40 25 -21
2 -38 2 -39 0z"/>
<path d="M2505 2801 c-27 -10 -66 -24 -85 -31 -46 -18 -128 -80 -163 -125 -53
-67 -109 -193 -114 -254 -9 -129 -9 -187 0 -211 6 -14 11 -29 12 -35 30 -127
114 -244 214 -294 20 -11 43 -26 50 -34 6 -9 34 -18 61 -22 28 -4 53 -11 56
-16 7 -12 131 -10 204 4 30 5 87 24 125 42 69 32 185 111 185 126 0 5 11 25
25 45 39 57 75 184 79 279 7 141 -32 266 -108 350 -19 22 -36 43 -36 46 0 9
-100 73 -137 88 -38 16 -92 20 -99 9 -3 -5 -11 -5 -17 -1 -6 4 -28 6 -48 4
-31 -2 -37 1 -36 16 2 15 -5 18 -41 16 -25 -1 -40 2 -37 7 9 15 -35 10 -90 -9z
m232 -75 c40 -6 116 -40 107 -48 -3 -4 23 -25 58 -47 57 -36 104 -91 78 -91
-10 0 26 -77 41 -86 5 -3 9 -14 9 -24 0 -10 7 -25 15 -34 11 -10 12 -17 4 -22
-8 -5 -8 -9 1 -14 7 -4 15 -28 17 -54 3 -25 10 -46 14 -46 5 0 9 -7 9 -16 0
-8 -4 -12 -10 -9 -5 3 -12 -7 -16 -22 -7 -36 -9 -40 -28 -85 -15 -35 -15 -38
1 -38 9 0 13 3 10 6 -3 4 -2 15 4 26 19 36 19 12 0 -42 -22 -63 -67 -124 -84
-113 -8 5 -8 8 0 10 14 5 48 101 39 110 -3 3 -8 -3 -12 -13 -18 -57 -54 -105
-54 -73 0 5 -5 7 -10 4 -7 -4 -7 -13 0 -26 13 -22 5 -39 -16 -39 -8 0 -13 -4
-10 -9 4 -5 -7 -12 -24 -16 -16 -4 -32 -11 -35 -16 -4 -5 -14 -9 -23 -9 -9 0
-28 -9 -42 -20 l-25 -20 33 6 c52 10 37 -4 -24 -22 -93 -27 -134 -26 -134 1 0
8 5 17 12 21 8 5 9 2 5 -9 -3 -10 -2 -17 3 -17 13 0 13 27 1 35 -5 3 -12 1
-16 -5 -4 -6 -11 -8 -16 -5 -5 3 -6 -1 -3 -9 4 -11 0 -16 -10 -16 -9 0 -16 5
-16 11 0 5 -4 8 -9 5 -13 -8 -104 32 -114 50 -7 12 -11 13 -24 2 -12 -10 -17
-9 -28 5 -7 9 -18 17 -24 17 -7 0 -10 4 -6 9 3 6 -3 15 -14 21 -12 6 -18 16
-15 25 7 18 -14 47 -28 39 -11 -7 -48 33 -48 51 0 7 -7 18 -15 25 -9 7 -13 15
-10 18 3 3 1 10 -5 17 -5 6 -11 28 -13 50 -2 21 -9 41 -15 43 -6 2 -9 9 -6 17
3 7 1 16 -5 20 -17 10 -25 -23 -10 -42 12 -14 12 -16 -1 -11 -20 6 -33 68 -14
68 14 0 18 15 14 57 0 12 9 45 21 73 12 29 22 58 22 66 0 8 6 14 13 14 11 0
28 35 25 53 -1 4 13 20 30 35 18 16 31 38 32 54 1 14 5 24 9 22 4 -3 33 14 64
36 36 27 72 45 102 50 45 7 152 5 219 -4z m164 -73 c13 -15 12 -15 -8 -4 -24
12 -29 21 -14 21 5 0 15 -7 22 -17z m179 -136 c0 -5 -4 -5 -10 -2 -5 3 -10 14
-10 23 0 15 2 15 10 2 5 -8 10 -19 10 -23z m-62 -2 c-3 -3 -9 2 -12 12 -6 14
-5 15 5 6 7 -7 10 -15 7 -18z m32 -58 c0 -7 5 -18 12 -25 6 -6 13 -19 14 -28
2 -14 1 -15 -10 -3 -19 22 -37 69 -26 69 6 0 10 -6 10 -13z m43 -102 c6 -15 1
-54 -8 -63 -3 -3 -5 3 -5 14 0 10 -3 29 -6 42 -7 24 10 31 19 7z m-882 -258
c10 -36 3 -34 -17 4 -11 23 -12 30 -3 27 7 -2 16 -16 20 -31z"/>
<path d="M2698 1843 c7 -3 16 -2 19 1 4 3 -2 6 -13 5 -11 0 -14 -3 -6 -6z"/>
<path d="M2690 2800 c0 -5 5 -10 11 -10 5 0 7 5 4 10 -3 6 -8 10 -11 10 -2 0
-4 -4 -4 -10z"/>
<path d="M3066 2714 c-15 -14 -14 -19 6 -55 16 -29 25 -36 34 -28 7 6 18 8 23
5 6 -4 15 3 21 14 6 11 7 20 3 20 -4 0 -16 14 -25 30 -19 33 -39 38 -62 14z"/>
<path d="M2177 2685 c-22 -45 -21 -52 3 -58 14 -3 28 4 45 25 24 29 25 32 9
49 -25 27 -38 24 -57 -16z m43 1 c0 -3 -4 -8 -10 -11 -5 -3 -10 -1 -10 4 0 6
5 11 10 11 6 0 10 -2 10 -4z"/>
<path d="M3206 2252 c-11 -42 -16 -92 -9 -93 4 0 17 -2 29 -4 29 -6 52 14 58
50 7 39 -2 50 -41 58 -25 5 -33 3 -37 -11z m39 -42 c-5 -23 -10 -29 -18 -21
-7 7 -7 18 2 37 15 34 25 25 16 -16z"/>
<path d="M2047 2199 c-20 -12 -23 -31 -3 -23 8 3 19 -3 25 -15 15 -28 14 -34
-8 -28 -14 3 -17 0 -14 -14 7 -27 17 -31 37 -16 16 11 16 19 7 55 -13 48 -20
54 -44 41z"/>
<path d="M3250 2136 c0 -8 -3 -23 -6 -33 -5 -12 -4 -15 3 -8 16 15 26 55 14
55 -6 0 -11 -6 -11 -14z"/>
<path d="M3003 1864 c-27 -30 -28 -40 -9 -59 11 -12 18 -9 46 14 29 24 31 30
21 49 -15 29 -31 28 -58 -4z m27 -29 c-7 -9 -15 -13 -18 -10 -3 2 1 11 8 20 7
9 15 13 18 10 3 -2 -1 -11 -8 -20z"/>
<path d="M2460 1751 c0 -4 10 -16 23 -24 l22 -16 -22 0 c-12 -1 -27 7 -32 17
-10 16 -10 16 -11 0 0 -21 7 -25 45 -29 42 -5 46 25 6 46 -17 8 -31 11 -31 6z"/>
<path d="M1467 1333 c-4 -3 -7 -11 -7 -17 0 -6 5 -5 12 2 6 6 9 14 7 17 -3 3
-9 2 -12 -2z"/>
<path d="M1779 1505 c-6 -22 5 -64 12 -49 3 5 3 23 -1 39 -5 25 -7 27 -11 10z"/>
<path d="M2105 1229 c4 -6 9 -8 12 -6 2 3 20 1 39 -3 18 -4 34 -4 34 0 0 4
-14 10 -31 14 -45 9 -61 7 -54 -5z"/>
<path d="M2210 1226 c0 -2 7 -7 16 -10 8 -3 12 -2 9 4 -6 10 -25 14 -25 6z"/>
<path d="M2250 1220 c0 -5 5 -10 10 -10 6 0 10 5 10 10 0 6 -4 10 -10 10 -5 0
-10 -4 -10 -10z"/>
<path d="M1130 4905 c-8 -9 -12 -40 -11 -78 1 -34 1 -96 1 -137 0 -41 0 -93 0
-115 1 -39 0 -53 0 -77 -2 -31 8 -117 14 -127 4 -5 2 -12 -3 -16 -5 -3 -7 -15
-4 -28 3 -12 7 -76 8 -142 2 -66 4 -128 4 -138 1 -10 7 -17 14 -14 7 2 11 19
10 43 0 21 -4 219 -7 438 -3 219 -7 401 -9 403 -2 2 -10 -3 -17 -12z"/>
<path d="M3930 4836 c0 -23 16 -27 17 -5 1 10 -2 19 -8 19 -5 0 -9 -6 -9 -14z"/>
<path d="M1984 4688 c3 -59 7 -112 11 -118 9 -15 55 44 55 72 0 14 -8 27 -22
33 -15 7 -23 21 -26 43 -2 19 -8 44 -13 55 -6 15 -8 -14 -5 -85z"/>
<path d="M3550 4729 c0 -5 5 -7 10 -4 6 3 10 8 10 11 0 2 -4 4 -10 4 -5 0 -10
-5 -10 -11z"/>
<path d="M2691 4566 c2 -47 7 -86 12 -86 11 0 7 159 -5 166 -6 4 -8 -29 -7
-80z"/>
<path d="M2728 4548 c0 -13 0 -42 1 -65 1 -24 -3 -43 -9 -43 -5 0 -10 7 -10
15 0 8 -4 15 -9 15 -14 0 -1 -38 15 -44 7 -3 16 0 20 5 11 19 15 127 4 134 -5
3 -11 -4 -12 -17z"/>
<path d="M4120 4155 c0 -8 5 -15 10 -15 6 0 10 7 10 15 0 8 -4 15 -10 15 -5 0
-10 -7 -10 -15z"/>
<path d="M4156 4129 c-9 -21 -15 -27 -19 -18 -3 8 -6 -7 -6 -33 -1 -54 7 -63
37 -42 17 11 21 25 20 64 0 61 -14 73 -32 29z"/>
<path d="M3660 3754 c0 -14 4 -23 9 -20 5 3 7 15 4 26 -7 28 -13 25 -13 -6z"/>
<path d="M2214 3723 c10 -11 37 -12 30 -2 -3 5 -12 9 -21 9 -9 0 -13 -3 -9 -7z"/>
<path d="M931 2334 c0 -11 3 -14 6 -6 3 7 2 16 -1 19 -3 4 -6 -2 -5 -13z"/>
<path d="M1745 1969 c6 -15 87 -81 107 -88 16 -5 -3 13 -65 63 -26 21 -45 33
-42 25z"/>
<path d="M1030 1403 c0 -4 5 -15 10 -23 8 -13 10 -13 10 2 0 9 -4 20 -10 23
-5 3 -10 3 -10 -2z"/>
<path d="M1050 1355 c0 -12 46 -94 53 -95 4 0 0 17 -9 38 -9 20 -18 43 -21 50
-5 12 -23 17 -23 7z"/>
<path d="M4466 1353 c-11 -11 -6 -23 9 -23 8 0 15 4 15 9 0 13 -16 22 -24 14z"/>
<path d="M1710 1199 c0 -5 5 -7 10 -4 6 3 10 8 10 11 0 2 -4 4 -10 4 -5 0 -10
-5 -10 -11z"/>
<path d="M1118 1106 c-19 -15 -25 -25 -18 -36 5 -8 6 -18 3 -24 -3 -5 -1 -6 4
-3 13 8 24 -18 17 -37 -3 -8 -12 -12 -20 -9 -12 4 -14 -5 -10 -56 2 -34 6 -65
10 -68 3 -3 1 -14 -5 -24 -6 -13 -6 -19 1 -19 5 0 10 -12 10 -26 0 -14 -4 -23
-9 -20 -5 3 -11 -7 -13 -24 -2 -16 -1 -27 4 -24 9 6 10 -3 8 -101 0 -38 -1
-77 0 -85 1 -15 0 -164 -2 -235 -2 -100 2 -135 17 -135 31 0 44 94 50 365 3
143 6 283 6 310 -1 90 -13 265 -20 269 -3 2 -18 -6 -33 -18z"/>
<path d="M1597 1073 c-4 -3 -7 -13 -7 -22 1 -13 3 -13 11 2 11 19 8 33 -4 20z"/>
<path d="M1052 960 c0 -14 2 -19 5 -12 2 6 2 18 0 25 -3 6 -5 1 -5 -13z"/>
<path d="M1060 810 c0 -5 5 -10 11 -10 5 0 7 5 4 10 -3 6 -8 10 -11 10 -2 0
-4 -4 -4 -10z"/>
<path d="M2139 718 c-1 -6 -1 -83 0 -102 0 -11 4 -16 8 -13 10 11 12 106 2
113 -5 3 -9 4 -10 2z"/>
<path d="M1592 530 c0 -14 2 -19 5 -12 2 6 2 18 0 25 -3 6 -5 1 -5 -13z"/>
<path d="M2138 513 c-5 -23 1 -53 12 -53 4 0 6 15 3 33 -6 39 -9 43 -15 20z"/>
<path d="M3177 513 c-6 -12 -7 -296 0 -290 5 6 14 297 8 297 -2 0 -6 -3 -8 -7z"/>
<path d="M1587 476 c-4 -15 -6 -31 -2 -34 10 -10 16 6 13 35 l-3 28 -8 -29z"/>
<path d="M1610 436 c0 -9 -6 -19 -12 -21 -8 -3 -14 -26 -15 -56 -1 -58 4 -60
13 -3 8 51 14 56 14 11 0 -20 5 -37 10 -37 17 0 28 42 19 73 -4 15 -8 31 -8
34 0 4 -4 9 -10 11 -6 2 -11 -4 -11 -12z"/>
<path d="M3049 434 c-6 -48 -3 -114 6 -114 7 0 7 -3 0 -8 -11 -8 -17 -39 -19
-92 -1 -31 2 -35 22 -34 22 1 23 -1 17 -37 -6 -32 -4 -39 9 -39 12 0 16 10 17
38 1 20 2 53 3 72 1 19 -3 49 -9 65 -7 17 -11 51 -10 77 1 35 -3 52 -17 64
-10 10 -18 13 -19 8z"/>
<path d="M1587 283 c-4 -3 -7 -18 -7 -31 0 -31 7 -26 14 11 5 28 4 31 -7 20z"/>
<path d="M2180 270 c0 -11 4 -20 8 -20 4 0 8 9 9 20 1 11 -2 20 -8 20 -5 0 -9
-9 -9 -20z"/>
<path d="M3171 184 c0 -11 3 -14 6 -6 3 7 2 16 -1 19 -3 4 -6 -2 -5 -13z"/>
</g>
</svg>
